<mxfile host="app.diagrams.net" modified="2021-12-21T10:20:09.680Z" agent="5.0 (Windows NT 10.0; Win64; x64) AppleWebKit/537.36 (KHTML, like Gecko) Chrome/96.0.4664.110 Safari/537.36" etag="VMjM986DxGQTHlGNwLkF" version="16.0.0" type="github">
  <diagram id="oUCfLijpCa5jud-OOD5O" name="Page-1">
    <mxGraphModel dx="1564" dy="950" grid="1" gridSize="10" guides="1" tooltips="1" connect="1" arrows="1" fold="1" page="1" pageScale="1" pageWidth="827" pageHeight="1169" math="0" shadow="0">
      <root>
        <mxCell id="0" />
        <mxCell id="1" parent="0" />
        <mxCell id="3Mxu8sWt4fkpuV7KhuS1-1" value="When FE users have a Terraform Issue" style="rounded=1;whiteSpace=wrap;html=1;" vertex="1" parent="1">
          <mxGeometry x="240" y="570" width="120" height="60" as="geometry" />
        </mxCell>
        <mxCell id="3Mxu8sWt4fkpuV7KhuS1-3" value="Create a Support Ticket" style="rhombus;whiteSpace=wrap;html=1;" vertex="1" parent="1">
          <mxGeometry x="390" y="440" width="150" height="95" as="geometry" />
        </mxCell>
        <mxCell id="3Mxu8sWt4fkpuV7KhuS1-4" value="Create a Github Issue" style="rhombus;whiteSpace=wrap;html=1;" vertex="1" parent="1">
          <mxGeometry x="390" y="660" width="150" height="95" as="geometry" />
        </mxCell>
        <mxCell id="3Mxu8sWt4fkpuV7KhuS1-8" value="" style="curved=1;endArrow=classic;html=1;rounded=0;exitX=1;exitY=0.5;exitDx=0;exitDy=0;entryX=0;entryY=0.5;entryDx=0;entryDy=0;" edge="1" parent="1" source="3Mxu8sWt4fkpuV7KhuS1-1" target="3Mxu8sWt4fkpuV7KhuS1-3">
          <mxGeometry width="50" height="50" relative="1" as="geometry">
            <mxPoint x="370" y="590" as="sourcePoint" />
            <mxPoint x="420" y="540" as="targetPoint" />
            <Array as="points">
              <mxPoint x="370" y="540" />
            </Array>
          </mxGeometry>
        </mxCell>
        <mxCell id="3Mxu8sWt4fkpuV7KhuS1-10" value="" style="curved=1;endArrow=classic;html=1;rounded=0;entryX=0;entryY=0.5;entryDx=0;entryDy=0;exitX=1;exitY=0.5;exitDx=0;exitDy=0;" edge="1" parent="1" source="3Mxu8sWt4fkpuV7KhuS1-1" target="3Mxu8sWt4fkpuV7KhuS1-4">
          <mxGeometry width="50" height="50" relative="1" as="geometry">
            <mxPoint x="320" y="720" as="sourcePoint" />
            <mxPoint x="370" y="670" as="targetPoint" />
            <Array as="points">
              <mxPoint x="370" y="650" />
            </Array>
          </mxGeometry>
        </mxCell>
        <mxCell id="3Mxu8sWt4fkpuV7KhuS1-11" value="Github Issue handled by TF R&amp;amp;D, supported by Huawei SA" style="rounded=1;whiteSpace=wrap;html=1;" vertex="1" parent="1">
          <mxGeometry x="600" y="677.5" width="120" height="60" as="geometry" />
        </mxCell>
        <mxCell id="3Mxu8sWt4fkpuV7KhuS1-12" value="" style="endArrow=classic;html=1;rounded=0;exitX=1;exitY=0.5;exitDx=0;exitDy=0;entryX=0;entryY=0.5;entryDx=0;entryDy=0;" edge="1" parent="1" source="3Mxu8sWt4fkpuV7KhuS1-4" target="3Mxu8sWt4fkpuV7KhuS1-11">
          <mxGeometry width="50" height="50" relative="1" as="geometry">
            <mxPoint x="630" y="850" as="sourcePoint" />
            <mxPoint x="680" y="800" as="targetPoint" />
          </mxGeometry>
        </mxCell>
        <mxCell id="3Mxu8sWt4fkpuV7KhuS1-13" value="" style="endArrow=classic;html=1;rounded=0;exitX=1;exitY=0.5;exitDx=0;exitDy=0;entryX=0;entryY=0.5;entryDx=0;entryDy=0;" edge="1" parent="1">
          <mxGeometry width="50" height="50" relative="1" as="geometry">
            <mxPoint x="540" y="487" as="sourcePoint" />
            <mxPoint x="600" y="487" as="targetPoint" />
          </mxGeometry>
        </mxCell>
        <mxCell id="3Mxu8sWt4fkpuV7KhuS1-14" value="Support Ticket handled by OCB Run Team, Supported by Huawei SRE" style="rounded=1;whiteSpace=wrap;html=1;" vertex="1" parent="1">
          <mxGeometry x="600" y="457.5" width="120" height="60" as="geometry" />
        </mxCell>
        <mxCell id="3Mxu8sWt4fkpuV7KhuS1-15" value="If problem is related to Terraform&amp;nbsp;" style="rhombus;whiteSpace=wrap;html=1;" vertex="1" parent="1">
          <mxGeometry x="790" y="415" width="190" height="145" as="geometry" />
        </mxCell>
        <mxCell id="3Mxu8sWt4fkpuV7KhuS1-16" value="" style="endArrow=classic;html=1;rounded=0;exitX=1;exitY=0.5;exitDx=0;exitDy=0;entryX=0;entryY=0.5;entryDx=0;entryDy=0;" edge="1" parent="1" source="3Mxu8sWt4fkpuV7KhuS1-14" target="3Mxu8sWt4fkpuV7KhuS1-15">
          <mxGeometry width="50" height="50" relative="1" as="geometry">
            <mxPoint x="790" y="487" as="sourcePoint" />
            <mxPoint x="850" y="487" as="targetPoint" />
          </mxGeometry>
        </mxCell>
        <mxCell id="3Mxu8sWt4fkpuV7KhuS1-18" value="" style="endArrow=classic;html=1;rounded=0;exitX=1;exitY=0.5;exitDx=0;exitDy=0;entryX=0;entryY=0.5;entryDx=0;entryDy=0;" edge="1" parent="1" source="3Mxu8sWt4fkpuV7KhuS1-15" target="3Mxu8sWt4fkpuV7KhuS1-29">
          <mxGeometry width="50" height="50" relative="1" as="geometry">
            <mxPoint x="997" y="550" as="sourcePoint" />
            <mxPoint x="1220" y="488" as="targetPoint" />
          </mxGeometry>
        </mxCell>
        <mxCell id="3Mxu8sWt4fkpuV7KhuS1-19" value="" style="endArrow=classic;html=1;rounded=0;exitX=0.5;exitY=0;exitDx=0;exitDy=0;" edge="1" parent="1" source="3Mxu8sWt4fkpuV7KhuS1-15">
          <mxGeometry width="50" height="50" relative="1" as="geometry">
            <mxPoint x="910" y="500" as="sourcePoint" />
            <mxPoint x="885" y="310" as="targetPoint" />
          </mxGeometry>
        </mxCell>
        <mxCell id="3Mxu8sWt4fkpuV7KhuS1-20" value="No" style="text;html=1;strokeColor=none;fillColor=none;align=center;verticalAlign=middle;whiteSpace=wrap;rounded=0;" vertex="1" parent="1">
          <mxGeometry x="880" y="360" width="60" height="30" as="geometry" />
        </mxCell>
        <mxCell id="3Mxu8sWt4fkpuV7KhuS1-21" value="Support Ticket will be assigned to dedicated SRE for the service behind" style="rounded=1;whiteSpace=wrap;html=1;" vertex="1" parent="1">
          <mxGeometry x="825" y="240" width="120" height="60" as="geometry" />
        </mxCell>
        <mxCell id="3Mxu8sWt4fkpuV7KhuS1-25" value="" style="verticalLabelPosition=bottom;verticalAlign=top;html=1;shape=mxgraph.basic.8_point_star;fillColor=#FF3D0D;" vertex="1" parent="1">
          <mxGeometry x="945" y="330" width="190" height="150" as="geometry" />
        </mxCell>
        <mxCell id="3Mxu8sWt4fkpuV7KhuS1-26" value="Now it is hard for Ops to identify if issue is related to Terraform or not since they are not TF certified" style="text;html=1;strokeColor=none;fillColor=#FF3D0D;align=center;verticalAlign=middle;whiteSpace=wrap;rounded=0;" vertex="1" parent="1">
          <mxGeometry x="977.5" y="366.5" width="125" height="77" as="geometry" />
        </mxCell>
        <mxCell id="3Mxu8sWt4fkpuV7KhuS1-27" value="If problem is related to Terraform&amp;nbsp;" style="rhombus;whiteSpace=wrap;html=1;" vertex="1" parent="1">
          <mxGeometry x="800" y="635" width="190" height="145" as="geometry" />
        </mxCell>
        <mxCell id="3Mxu8sWt4fkpuV7KhuS1-29" value="Terraform R&amp;amp;D will&amp;nbsp; fix the bug" style="rounded=1;whiteSpace=wrap;html=1;" vertex="1" parent="1">
          <mxGeometry x="1220" y="525" width="170" height="120" as="geometry" />
        </mxCell>
        <mxCell id="3Mxu8sWt4fkpuV7KhuS1-30" value="Yes" style="text;html=1;strokeColor=none;fillColor=none;align=center;verticalAlign=middle;whiteSpace=wrap;rounded=0;" vertex="1" parent="1">
          <mxGeometry x="1075" y="505" width="60" height="30" as="geometry" />
        </mxCell>
        <mxCell id="3Mxu8sWt4fkpuV7KhuS1-31" value="" style="endArrow=classic;html=1;rounded=0;exitX=1;exitY=0.5;exitDx=0;exitDy=0;entryX=0;entryY=0.5;entryDx=0;entryDy=0;" edge="1" parent="1" source="3Mxu8sWt4fkpuV7KhuS1-11" target="3Mxu8sWt4fkpuV7KhuS1-27">
          <mxGeometry width="50" height="50" relative="1" as="geometry">
            <mxPoint x="780" y="820" as="sourcePoint" />
            <mxPoint x="1020" y="897.5" as="targetPoint" />
          </mxGeometry>
        </mxCell>
        <mxCell id="3Mxu8sWt4fkpuV7KhuS1-32" value="" style="endArrow=classic;html=1;rounded=0;exitX=1;exitY=0.5;exitDx=0;exitDy=0;entryX=0;entryY=0.5;entryDx=0;entryDy=0;" edge="1" parent="1" source="3Mxu8sWt4fkpuV7KhuS1-27" target="3Mxu8sWt4fkpuV7KhuS1-29">
          <mxGeometry width="50" height="50" relative="1" as="geometry">
            <mxPoint x="990" y="497.5" as="sourcePoint" />
            <mxPoint x="1230" y="575" as="targetPoint" />
          </mxGeometry>
        </mxCell>
        <mxCell id="3Mxu8sWt4fkpuV7KhuS1-33" value="Yes" style="text;html=1;strokeColor=none;fillColor=none;align=center;verticalAlign=middle;whiteSpace=wrap;rounded=0;" vertex="1" parent="1">
          <mxGeometry x="1042.5" y="625" width="60" height="30" as="geometry" />
        </mxCell>
        <mxCell id="3Mxu8sWt4fkpuV7KhuS1-34" value="" style="endArrow=classic;html=1;rounded=0;exitX=0.5;exitY=1;exitDx=0;exitDy=0;" edge="1" parent="1" source="3Mxu8sWt4fkpuV7KhuS1-27">
          <mxGeometry width="50" height="50" relative="1" as="geometry">
            <mxPoint x="1060" y="1005" as="sourcePoint" />
            <mxPoint x="895" y="890" as="targetPoint" />
          </mxGeometry>
        </mxCell>
        <mxCell id="3Mxu8sWt4fkpuV7KhuS1-35" value="No" style="text;html=1;strokeColor=none;fillColor=none;align=center;verticalAlign=middle;whiteSpace=wrap;rounded=0;" vertex="1" parent="1">
          <mxGeometry x="900" y="810" width="60" height="30" as="geometry" />
        </mxCell>
        <mxCell id="3Mxu8sWt4fkpuV7KhuS1-36" value="Github issue may be pending by TF R&amp;amp;D while the real issue remain unsolved" style="rounded=1;whiteSpace=wrap;html=1;" vertex="1" parent="1">
          <mxGeometry x="835" y="890" width="120" height="60" as="geometry" />
        </mxCell>
        <mxCell id="3Mxu8sWt4fkpuV7KhuS1-37" value="" style="verticalLabelPosition=bottom;verticalAlign=top;html=1;shape=mxgraph.basic.8_point_star;fillColor=#FF3D0D;" vertex="1" parent="1">
          <mxGeometry x="945" y="750" width="225" height="180" as="geometry" />
        </mxCell>
        <mxCell id="3Mxu8sWt4fkpuV7KhuS1-38" value="Need a governance to manage general issues since R&amp;amp;D are supposed to fix Terraform layer issue for now" style="text;html=1;strokeColor=none;fillColor=#FF3D0D;align=center;verticalAlign=middle;whiteSpace=wrap;rounded=0;" vertex="1" parent="1">
          <mxGeometry x="995" y="801.5" width="125" height="77" as="geometry" />
        </mxCell>
        <mxCell id="3Mxu8sWt4fkpuV7KhuS1-39" value="When FE users have a Terraform Issue" style="rounded=1;whiteSpace=wrap;html=1;" vertex="1" parent="1">
          <mxGeometry x="240" y="1600" width="120" height="60" as="geometry" />
        </mxCell>
        <mxCell id="3Mxu8sWt4fkpuV7KhuS1-40" value="Create a Support Ticket" style="rhombus;whiteSpace=wrap;html=1;" vertex="1" parent="1">
          <mxGeometry x="390" y="1470" width="150" height="95" as="geometry" />
        </mxCell>
        <mxCell id="3Mxu8sWt4fkpuV7KhuS1-41" value="Create a Github Issue" style="rhombus;whiteSpace=wrap;html=1;" vertex="1" parent="1">
          <mxGeometry x="390" y="1690" width="150" height="95" as="geometry" />
        </mxCell>
        <mxCell id="3Mxu8sWt4fkpuV7KhuS1-42" value="" style="curved=1;endArrow=classic;html=1;rounded=0;exitX=1;exitY=0.5;exitDx=0;exitDy=0;entryX=0;entryY=0.5;entryDx=0;entryDy=0;" edge="1" parent="1" source="3Mxu8sWt4fkpuV7KhuS1-39" target="3Mxu8sWt4fkpuV7KhuS1-40">
          <mxGeometry width="50" height="50" relative="1" as="geometry">
            <mxPoint x="370" y="1620" as="sourcePoint" />
            <mxPoint x="420" y="1570" as="targetPoint" />
            <Array as="points">
              <mxPoint x="370" y="1570" />
            </Array>
          </mxGeometry>
        </mxCell>
        <mxCell id="3Mxu8sWt4fkpuV7KhuS1-43" value="" style="curved=1;endArrow=classic;html=1;rounded=0;entryX=0;entryY=0.5;entryDx=0;entryDy=0;exitX=1;exitY=0.5;exitDx=0;exitDy=0;" edge="1" parent="1" source="3Mxu8sWt4fkpuV7KhuS1-39" target="3Mxu8sWt4fkpuV7KhuS1-41">
          <mxGeometry width="50" height="50" relative="1" as="geometry">
            <mxPoint x="320" y="1750" as="sourcePoint" />
            <mxPoint x="370" y="1700" as="targetPoint" />
            <Array as="points">
              <mxPoint x="370" y="1680" />
            </Array>
          </mxGeometry>
        </mxCell>
        <mxCell id="3Mxu8sWt4fkpuV7KhuS1-44" value="Github Issue handled by TF R&amp;amp;D, supported by Huawei SA" style="rounded=1;whiteSpace=wrap;html=1;" vertex="1" parent="1">
          <mxGeometry x="600" y="1707.5" width="120" height="60" as="geometry" />
        </mxCell>
        <mxCell id="3Mxu8sWt4fkpuV7KhuS1-45" value="" style="endArrow=classic;html=1;rounded=0;exitX=1;exitY=0.5;exitDx=0;exitDy=0;entryX=0;entryY=0.5;entryDx=0;entryDy=0;" edge="1" parent="1" source="3Mxu8sWt4fkpuV7KhuS1-41" target="3Mxu8sWt4fkpuV7KhuS1-44">
          <mxGeometry width="50" height="50" relative="1" as="geometry">
            <mxPoint x="630" y="1880" as="sourcePoint" />
            <mxPoint x="680" y="1830" as="targetPoint" />
          </mxGeometry>
        </mxCell>
        <mxCell id="3Mxu8sWt4fkpuV7KhuS1-46" value="" style="endArrow=classic;html=1;rounded=0;exitX=1;exitY=0.5;exitDx=0;exitDy=0;entryX=0;entryY=0.5;entryDx=0;entryDy=0;" edge="1" parent="1">
          <mxGeometry width="50" height="50" relative="1" as="geometry">
            <mxPoint x="540" y="1517" as="sourcePoint" />
            <mxPoint x="600" y="1517" as="targetPoint" />
          </mxGeometry>
        </mxCell>
        <mxCell id="3Mxu8sWt4fkpuV7KhuS1-47" value="Support Ticket handled by OCB Run Team, Supported by Huawei SRE" style="rounded=1;whiteSpace=wrap;html=1;" vertex="1" parent="1">
          <mxGeometry x="600" y="1487.5" width="120" height="60" as="geometry" />
        </mxCell>
        <mxCell id="3Mxu8sWt4fkpuV7KhuS1-48" value="If problem is related to Terraform&amp;nbsp;" style="rhombus;whiteSpace=wrap;html=1;" vertex="1" parent="1">
          <mxGeometry x="790" y="1445" width="190" height="145" as="geometry" />
        </mxCell>
        <mxCell id="3Mxu8sWt4fkpuV7KhuS1-49" value="" style="endArrow=classic;html=1;rounded=0;exitX=1;exitY=0.5;exitDx=0;exitDy=0;entryX=0;entryY=0.5;entryDx=0;entryDy=0;" edge="1" parent="1" source="3Mxu8sWt4fkpuV7KhuS1-47" target="3Mxu8sWt4fkpuV7KhuS1-48">
          <mxGeometry width="50" height="50" relative="1" as="geometry">
            <mxPoint x="790" y="1517" as="sourcePoint" />
            <mxPoint x="850" y="1517" as="targetPoint" />
          </mxGeometry>
        </mxCell>
        <mxCell id="3Mxu8sWt4fkpuV7KhuS1-50" value="" style="endArrow=classic;html=1;rounded=0;exitX=1;exitY=0.5;exitDx=0;exitDy=0;entryX=0;entryY=0.5;entryDx=0;entryDy=0;" edge="1" parent="1" source="3Mxu8sWt4fkpuV7KhuS1-48" target="3Mxu8sWt4fkpuV7KhuS1-57">
          <mxGeometry width="50" height="50" relative="1" as="geometry">
            <mxPoint x="997" y="1580" as="sourcePoint" />
            <mxPoint x="1220" y="1518" as="targetPoint" />
          </mxGeometry>
        </mxCell>
        <mxCell id="3Mxu8sWt4fkpuV7KhuS1-51" value="" style="endArrow=classic;html=1;rounded=0;exitX=0.5;exitY=0;exitDx=0;exitDy=0;" edge="1" parent="1" source="3Mxu8sWt4fkpuV7KhuS1-48">
          <mxGeometry width="50" height="50" relative="1" as="geometry">
            <mxPoint x="910" y="1530" as="sourcePoint" />
            <mxPoint x="885" y="1340" as="targetPoint" />
          </mxGeometry>
        </mxCell>
        <mxCell id="3Mxu8sWt4fkpuV7KhuS1-52" value="No" style="text;html=1;strokeColor=none;fillColor=none;align=center;verticalAlign=middle;whiteSpace=wrap;rounded=0;" vertex="1" parent="1">
          <mxGeometry x="880" y="1390" width="60" height="30" as="geometry" />
        </mxCell>
        <mxCell id="3Mxu8sWt4fkpuV7KhuS1-53" value="Support Ticket will be assigned to dedicated SRE for the service behind" style="rounded=1;whiteSpace=wrap;html=1;" vertex="1" parent="1">
          <mxGeometry x="825" y="1270" width="120" height="60" as="geometry" />
        </mxCell>
        <mxCell id="3Mxu8sWt4fkpuV7KhuS1-54" value="" style="verticalLabelPosition=bottom;verticalAlign=top;html=1;shape=mxgraph.basic.8_point_star;fillColor=#FF3D0D;" vertex="1" parent="1">
          <mxGeometry x="945" y="1360" width="190" height="150" as="geometry" />
        </mxCell>
        <mxCell id="3Mxu8sWt4fkpuV7KhuS1-55" value="Now it is hard for Ops to identify if issue is related to Terraform or not since they are not TF certified" style="text;html=1;strokeColor=none;fillColor=#FF3D0D;align=center;verticalAlign=middle;whiteSpace=wrap;rounded=0;" vertex="1" parent="1">
          <mxGeometry x="977.5" y="1396.5" width="125" height="77" as="geometry" />
        </mxCell>
        <mxCell id="3Mxu8sWt4fkpuV7KhuS1-56" value="If problem is related to Terraform&amp;nbsp;" style="rhombus;whiteSpace=wrap;html=1;" vertex="1" parent="1">
          <mxGeometry x="800" y="1665" width="190" height="145" as="geometry" />
        </mxCell>
        <mxCell id="3Mxu8sWt4fkpuV7KhuS1-57" value="Terraform R&amp;amp;D will&amp;nbsp; fix the bug" style="rounded=1;whiteSpace=wrap;html=1;" vertex="1" parent="1">
          <mxGeometry x="1220" y="1555" width="170" height="120" as="geometry" />
        </mxCell>
        <mxCell id="3Mxu8sWt4fkpuV7KhuS1-58" value="Yes" style="text;html=1;strokeColor=none;fillColor=none;align=center;verticalAlign=middle;whiteSpace=wrap;rounded=0;" vertex="1" parent="1">
          <mxGeometry x="1075" y="1535" width="60" height="30" as="geometry" />
        </mxCell>
        <mxCell id="3Mxu8sWt4fkpuV7KhuS1-59" value="" style="endArrow=classic;html=1;rounded=0;exitX=1;exitY=0.5;exitDx=0;exitDy=0;entryX=0;entryY=0.5;entryDx=0;entryDy=0;" edge="1" parent="1" source="3Mxu8sWt4fkpuV7KhuS1-44" target="3Mxu8sWt4fkpuV7KhuS1-56">
          <mxGeometry width="50" height="50" relative="1" as="geometry">
            <mxPoint x="780" y="1850" as="sourcePoint" />
            <mxPoint x="1020" y="1927.5" as="targetPoint" />
          </mxGeometry>
        </mxCell>
        <mxCell id="3Mxu8sWt4fkpuV7KhuS1-60" value="" style="endArrow=classic;html=1;rounded=0;exitX=1;exitY=0.5;exitDx=0;exitDy=0;entryX=0;entryY=0.5;entryDx=0;entryDy=0;" edge="1" parent="1" source="3Mxu8sWt4fkpuV7KhuS1-56" target="3Mxu8sWt4fkpuV7KhuS1-57">
          <mxGeometry width="50" height="50" relative="1" as="geometry">
            <mxPoint x="990" y="1527.5" as="sourcePoint" />
            <mxPoint x="1230" y="1605" as="targetPoint" />
          </mxGeometry>
        </mxCell>
        <mxCell id="3Mxu8sWt4fkpuV7KhuS1-61" value="Yes" style="text;html=1;strokeColor=none;fillColor=none;align=center;verticalAlign=middle;whiteSpace=wrap;rounded=0;" vertex="1" parent="1">
          <mxGeometry x="1042.5" y="1655" width="60" height="30" as="geometry" />
        </mxCell>
        <mxCell id="3Mxu8sWt4fkpuV7KhuS1-62" value="" style="endArrow=classic;html=1;rounded=0;exitX=0.5;exitY=1;exitDx=0;exitDy=0;" edge="1" parent="1" source="3Mxu8sWt4fkpuV7KhuS1-56">
          <mxGeometry width="50" height="50" relative="1" as="geometry">
            <mxPoint x="1060" y="2035" as="sourcePoint" />
            <mxPoint x="895" y="1920" as="targetPoint" />
          </mxGeometry>
        </mxCell>
        <mxCell id="3Mxu8sWt4fkpuV7KhuS1-63" value="No" style="text;html=1;strokeColor=none;fillColor=none;align=center;verticalAlign=middle;whiteSpace=wrap;rounded=0;" vertex="1" parent="1">
          <mxGeometry x="900" y="1840" width="60" height="30" as="geometry" />
        </mxCell>
        <mxCell id="3Mxu8sWt4fkpuV7KhuS1-64" value="Github issue may be pending by TF R&amp;amp;D while the real issue remain unsolved" style="rounded=1;whiteSpace=wrap;html=1;" vertex="1" parent="1">
          <mxGeometry x="835" y="1920" width="120" height="60" as="geometry" />
        </mxCell>
        <mxCell id="3Mxu8sWt4fkpuV7KhuS1-65" value="" style="verticalLabelPosition=bottom;verticalAlign=top;html=1;shape=mxgraph.basic.8_point_star;fillColor=#FF3D0D;" vertex="1" parent="1">
          <mxGeometry x="945" y="1780" width="225" height="180" as="geometry" />
        </mxCell>
        <mxCell id="3Mxu8sWt4fkpuV7KhuS1-66" value="Need a governance to manage general issues since R&amp;amp;D are supposed to fix Terraform layer issue for now" style="text;html=1;strokeColor=none;fillColor=#FF3D0D;align=center;verticalAlign=middle;whiteSpace=wrap;rounded=0;" vertex="1" parent="1">
          <mxGeometry x="995" y="1831.5" width="125" height="77" as="geometry" />
        </mxCell>
      </root>
    </mxGraphModel>
  </diagram>
</mxfile>
